<?xml version="1.0" encoding="UTF-8"?><svg xmlns="http://www.w3.org/2000/svg" viewBox="0 0 24 24"><g id="a"/><g id="b"/><g id="c"/><g id="d"><path d="M10,21.97H3c-.55,0-1-.45-1-1v-7c0-.55,.45-1,1-1h7c.55,0,1,.45,1,1v7c0,.55-.45,1-1,1Zm-6-2h5v-5H4v5Z"/><path d="M17.5,21.97c-2.48,0-4.5-2.02-4.5-4.5s2.02-4.5,4.5-4.5,4.5,2.02,4.5,4.5-2.02,4.5-4.5,4.5Zm0-7c-1.38,0-2.5,1.12-2.5,2.5s1.12,2.5,2.5,2.5,2.5-1.12,2.5-2.5-1.12-2.5-2.5-2.5Z"/><path d="M16.04,10.95H7.96c-.36,0-.69-.19-.87-.5s-.18-.69,0-1L11.13,2.45c.36-.62,1.38-.62,1.73,0l4.04,7c.18,.31,.18,.69,0,1s-.51,.5-.87,.5Zm-6.35-2h4.62l-2.31-4-2.31,4Z"/></g></svg>